{"title":"Mr. X (2015) Pre DvD Rip - X264 - [1CD] - IcTv LotterY Exclusive","uid":11821741,"size":743626153,"categoryP":"video","categoryS":"other","magnet":"?xt=urn:btih:b3960538eef8bd7576aff188d51051cf9a054ecb&amp;dn=Mr.+X+%282015%29+Pre+DvD+Rip+-+X264+-+%5B1CD%5D+-+IcTv+LotterY+Exclusive&amp;tr=udp%3A%2F%2Ftracker.openbittorrent.com%3A80&amp;tr=udp%3A%2F%2Fopen.demonii.com%3A1337&amp;tr=udp%3A%2F%2Ftracker.coppersurfer.tk%3A6969&amp;tr=udp%3A%2F%2Fexodus.desync.com%3A6969","seeders":44,"leechers":4,"uploader":"SS132203","files":4,"time":1429284376,"description":"Mr. X (2015) Pre DvD Rip - X264 - [1CD] - IcTv LotterY Exclusive -={SPARROW}=-\n &lt;a href=&quot;\nhttp://imgsparrow.co/image/9R&quot; rel=&quot;nofollow&quot; target=&quot;_NEW&quot;&gt;\nhttp://imgsparrow.co/image/9R&lt;/a&gt;\n &lt;a href=&quot;\nhttp://imgsparrow.co/image/9b&quot; rel=&quot;nofollow&quot; target=&quot;_NEW&quot;&gt;\nhttp://imgsparrow.co/image/9b&lt;/a&gt;\n\nMovie Info\nBanner : Vishesh Films\nYear : 2015\nCast : Emraan Hashmi.Amyra Dastur.Nora Fatehi\nVideo: X264\nAudio : AC 3\nGenre : Thriller, 3D, Social\nSubtitles : None\nResolution : 640 x 272\nRuntime : 2hr 02min xx\nSource : Team IcTv\n\nFormat                      : Matroska\nFormat version              : Version 2\nFile size                   : 697 MiB\nDuration                    : 2h 2mn\nOverall bit rate            : 798 Kbps\n\nVideo\nID                          : 1\nFormat                      : AVC\nFormat/Info                 : Advanced Video Codec\nFormat profile              : &lt;a class=&quot;__cf_email__&quot; href=&quot;/cdn-cgi/l/email-protection&quot; data-cfemail=&quot;155d7c727d5559273b24&quot;&gt;[email&amp;#160;protected]&lt;/a&gt;&lt;script cf-hash='f9e31' type=&quot;text/javascript&quot;&gt;\n/* &lt;![CDATA[ */!function(){try{var t=&quot;currentScript&quot;in document?document.currentScript:function(){for(var t=document.getElementsByTagName(&quot;script&quot;),e=t.length;e--;)if(t[e].getAttribute(&quot;cf-hash&quot;))return t[e]}();if(t&amp;&amp;t.previousSibling){var e,r,n,i,c=t.previousSibling,a=c.getAttribute(&quot;data-cfemail&quot;);if(a){for(e=&quot;&quot;,r=parseInt(a.substr(0,2),16),n=2;a.length-n;n+=2)i=parseInt(a.substr(n,2),16)^r,e+=String.fromCharCode(i);e=document.createTextNode(e),c.parentNode.replaceChild(e,c)}}}catch(u){}}();/* ]]&gt; */&lt;/script&gt;\nFormat settings, CABAC      : Yes\nFormat settings, ReFrames   : 4 frames\nCodec ID                    : V_MPEG4/ISO/AVC\nDuration                    : 2h 2mn\nBit rate                    : 412 Kbps\nWidth                       : 640 pixels\nHeight                      : 272 pixels\nDisplay aspect ratio        : 2.35:1\nFrame rate mode             : Constant\nFrame rate                  : 25.000 fps\nColor space                 : YUV\nChroma subsampling          : 4:2:0\nBit depth                   : 8 bits\nScan type                   : Progressive\nBits/(Pixel*Frame)          : 0.095\nStream size                 : 348 MiB (50%)\n\nAudio\nID                          : 2\nFormat                      : AC-3\nFormat/Info                 : Audio Coding 3\nMode extension              : CM (complete main)\nFormat settings, Endianness : Big\nCodec ID                    : A_AC3\nDuration                    : 2h 2mn\nBit rate mode               : Constant\nBit rate                    : 384 Kbps\nChannel(s)                  : 2 channels\nChannel positions           : Front: L R\nSampling rate               : 48.0 KHz\nBit depth                   : 16 bits\nCompression mode            : Lossy\nStream size                 : 336 MiB (48%)\n &lt;a href=&quot;\nhttp://imgsparrow.co/image/9h&quot; rel=&quot;nofollow&quot; target=&quot;_NEW&quot;&gt;\nhttp://imgsparrow.co/image/9h&lt;/a&gt;\n &lt;a href=&quot;\nhttp://imgsparrow.co/image/9v&quot; rel=&quot;nofollow&quot; target=&quot;_NEW&quot;&gt;\nhttp://imgsparrow.co/image/9v&lt;/a&gt; &lt;a href=&quot;\nhttp://imgsparrow.co/image/9x&quot; rel=&quot;nofollow&quot; target=&quot;_NEW&quot;&gt;\nhttp://imgsparrow.co/image/9x&lt;/a&gt; &lt;a href=&quot;\nhttp://imgsparrow.co/image/9C&quot; rel=&quot;nofollow&quot; target=&quot;_NEW&quot;&gt;\nhttp://imgsparrow.co/image/9C&lt;/a&gt; &lt;a href=&quot;\nhttp://imgsparrow.co/image/91&quot; rel=&quot;nofollow&quot; target=&quot;_NEW&quot;&gt;\nhttp://imgsparrow.co/image/91&lt;/a&gt; &lt;a href=&quot;\nhttp://imgsparrow.co/image/L6&quot; rel=&quot;nofollow&quot; target=&quot;_NEW&quot;&gt;\nhttp://imgsparrow.co/image/L6&lt;/a&gt; &lt;a href=&quot;\nhttp://imgsparrow.co/image/L8&quot; rel=&quot;nofollow&quot; target=&quot;_NEW&quot;&gt;\nhttp://imgsparrow.co/image/L8&lt;/a&gt; &lt;a href=&quot;\nhttp://imgsparrow.co/image/L9&quot; rel=&quot;nofollow&quot; target=&quot;_NEW&quot;&gt;\nhttp://imgsparrow.co/image/L9&lt;/a&gt; &lt;a href=&quot;\nhttp://imgsparrow.co/image/LL&quot; rel=&quot;nofollow&quot; target=&quot;_NEW&quot;&gt;\nhttp://imgsparrow.co/image/LL&lt;/a&gt; &lt;a href=&quot;\nhttp://imgsparrow.co/image/LN&quot; rel=&quot;nofollow&quot; target=&quot;_NEW&quot;&gt;\nhttp://imgsparrow.co/image/LN&lt;/a&gt; &lt;a href=&quot;\nhttp://imgsparrow.co/image/Lt&quot; rel=&quot;nofollow&quot; target=&quot;_NEW&quot;&gt;\nhttp://imgsparrow.co/image/Lt&lt;/a&gt;\n\nSample Within Torrent\nAll Credit Goes To Intellect Clever &amp; IcTv\n &lt;a href=&quot;\nhttp://imgsparrow.org/images/2015/02/22/SPARROW.gif&quot; rel=&quot;nofollow&quot; target=&quot;_NEW&quot;&gt;\nhttp://imgsparrow.org/images/2015/02/22/SPARROW.gif&lt;/a&gt;","torrent":{"xt":"urn:btih:b3960538eef8bd7576aff188d51051cf9a054ecb","amp;dn":"Mr.+X+%282015%29+Pre+DvD+Rip+-+X264+-+%5B1CD%5D+-+IcTv+LotterY+Exclusive","amp;tr":["udp%3A%2F%2Ftracker.openbittorrent.com%3A80","udp%3A%2F%2Fopen.demonii.com%3A1337","udp%3A%2F%2Ftracker.coppersurfer.tk%3A6969","udp%3A%2F%2Fexodus.desync.com%3A6969"],"infoHash":"b3960538eef8bd7576aff188d51051cf9a054ecb","infoHashBuffer":{"type":"Buffer","data":[179,150,5,56,238,248,189,117,118,175,241,136,213,16,81,207,154,5,78,203]},"announce":[],"urlList":[]}}